<svg width="29" height="29" viewBox="0 0 29 29" fill="none" xmlns="http://www.w3.org/2000/svg">
<path d="M26.3477 12.1338H25.3743V12.0837H14.4993V16.917H21.3282C20.332 19.7306 17.6549 21.7503 14.4993 21.7503C10.4955 21.7503 7.24935 18.5041 7.24935 14.5003C7.24935 10.4965 10.4955 7.25033 14.4993 7.25033C16.3475 7.25033 18.0289 7.94753 19.3091 9.08639L22.7269 5.66862C20.5688 3.65735 17.6821 2.41699 14.4993 2.41699C7.82633 2.41699 2.41602 7.8273 2.41602 14.5003C2.41602 21.1733 7.82633 26.5837 14.4993 26.5837C21.1724 26.5837 26.5827 21.1733 26.5827 14.5003C26.5827 13.6901 26.4993 12.8993 26.3477 12.1338Z" fill="#FFC107"/>
<path d="M3.81055 8.87614L7.78053 11.7876C8.85473 9.12808 11.4563 7.25033 14.5007 7.25033C16.3488 7.25033 18.0302 7.94753 19.3104 9.08639L22.7282 5.66862C20.5701 3.65735 17.6834 2.41699 14.5007 2.41699C9.85946 2.41699 5.83451 5.03726 3.81055 8.87614Z" fill="#FF3D00"/>
<path d="M14.4994 26.5833C17.6205 26.5833 20.4565 25.3888 22.6006 23.4464L18.8609 20.2818C17.6477 21.2007 16.1397 21.7499 14.4994 21.7499C11.3565 21.7499 8.6879 19.7459 7.68256 16.9492L3.74219 19.9852C5.74198 23.8983 9.80319 26.5833 14.4994 26.5833Z" fill="#4CAF50"/>
<path d="M26.3483 12.1332H25.375V12.083H14.5V16.9163H21.3289C20.8504 18.2679 19.981 19.4333 18.8597 20.2822L18.8615 20.2809L22.6013 23.4456C22.3366 23.686 26.5833 20.5413 26.5833 14.4997C26.5833 13.6895 26.5 12.8986 26.3483 12.1332Z" fill="#1976D2"/>
</svg>
